HIERARCHY
ROOT Hips
{
    OFFSET 0.000000 0.000000 0.000000
    CHANNELS 6 Xposition Yposition Zposition Zrotation Xrotation Yrotation
    JOINT Spine
    {
        OFFSET -0.000000 7.305680 0.000000
        CHANNELS 3 Zrotation Xrotation Yrotation
        JOINT Spine1
        {
            OFFSET -0.000000 20.356600 0.000000
            CHANNELS 3 Zrotation Xrotation Yrotation
            JOINT Neck
            {
                OFFSET -0.000000 22.138500 0.000000
                CHANNELS 3 Zrotation Xrotation Yrotation
                JOINT Head
                {
                    OFFSET -0.000000 13.809501 1.781870
                    CHANNELS 3 Zrotation Xrotation Yrotation
                    End Site
                    {
                        OFFSET -0.000000 17.818779 0.000000
                    }
                }
            }
            JOINT LeftShoulder
            {
                OFFSET 3.599130 17.990000 0.023591
                CHANNELS 3 Zrotation Xrotation Yrotation
                JOINT LeftArm
                {
                    OFFSET 12.560999 0.000000 0.000000
                    CHANNELS 3 Zrotation Xrotation Yrotation
                    JOINT LeftForeArm
                    {
                        OFFSET 22.903299 0.000000 0.000000
                        CHANNELS 3 Zrotation Xrotation Yrotation
                        JOINT LeftHand
                        {
                            OFFSET 21.865299 0.000000 0.000000
                            CHANNELS 3 Zrotation Xrotation Yrotation
                            JOINT LeftHandThumb1
                            {
                                OFFSET 1.853710 -2.106480 2.949080
                                CHANNELS 3 Zrotation Xrotation Yrotation
                                JOINT LeftHandThumb2
                                {
                                    OFFSET 2.049150 0.000000 1.336400
                                    CHANNELS 3 Zrotation Xrotation Yrotation
                                    JOINT LeftHandThumb3
                                    {
                                        OFFSET 2.672810 0.000000 0.000000
                                        CHANNELS 3 Zrotation Xrotation Yrotation
                                        End Site
                                        {
                                            OFFSET 2.381310 0.000000 0.000000
                                        }
                                    }
                                }
                            }
                            JOINT LeftHandIndex1
                            {
                                OFFSET 7.583340 0.000000 2.949080
                                CHANNELS 3 Zrotation Xrotation Yrotation
                                JOINT LeftHandIndex2
                                {
                                    OFFSET 4.454680 0.000000 0.000000
                                    CHANNELS 3 Zrotation Xrotation Yrotation
                                    JOINT LeftHandIndex3
                                    {
                                        OFFSET 2.227340 0.000000 0.000000
                                        CHANNELS 3 Zrotation Xrotation Yrotation
                                        End Site
                                        {
                                            OFFSET 1.984424 0.000000 0.000000
                                        }
                                    }
                                }
                            }
                            JOINT LeftHandMiddle1
                            {
                                OFFSET 7.583340 0.000000 0.977409
                                CHANNELS 3 Zrotation Xrotation Yrotation
                                JOINT LeftHandMiddle2
                                {
                                    OFFSET 4.900150 0.000000 0.000000
                                    CHANNELS 3 Zrotation Xrotation Yrotation
                                    JOINT LeftHandMiddle3
                                    {
                                        OFFSET 2.672810 0.000000 0.000000
                                        CHANNELS 3 Zrotation Xrotation Yrotation
                                        End Site
                                        {
                                            OFFSET 2.381310 0.000000 0.000000
                                        }
                                    }
                                }
                            }
                            JOINT LeftHandRing1
                            {
                                OFFSET 7.162050 0.000000 -0.977409
                                CHANNELS 3 Zrotation Xrotation Yrotation
                                JOINT LeftHandRing2
                                {
                                    OFFSET 4.454680 0.000000 0.000000
                                    CHANNELS 3 Zrotation Xrotation Yrotation
                                    JOINT LeftHandRing3
                                    {
                                        OFFSET 2.227340 0.000000 0.000000
                                        CHANNELS 3 Zrotation Xrotation Yrotation
                                        End Site
                                        {
                                            OFFSET 1.984424 0.000000 0.000000
                                        }
                                    }
                                }
                            }
                            JOINT LeftHandPinky1
                            {
                                OFFSET 6.740750 0.000000 -2.949080
                                CHANNELS 3 Zrotation Xrotation Yrotation
                                JOINT LeftHandPinky2
                                {
                                    OFFSET 3.563750 0.000000 0.000000
                                    CHANNELS 3 Zrotation Xrotation Yrotation
                                    JOINT LeftHandPinky3
                                    {
                                        OFFSET 1.781870 0.000000 0.000000
                                        CHANNELS 3 Zrotation Xrotation Yrotation
                                        End Site
                                        {
                                            OFFSET 1.587538 0.000000 0.000000
                                        }
                                    }
                                }
                            }
                        }
                    }
                }
            }
            JOINT RightShoulder
            {
                OFFSET -3.506990 17.990000 0.023591
                CHANNELS 3 Zrotation Xrotation Yrotation
                JOINT RightArm
                {
                    OFFSET -12.560999 0.000000 0.000000
                    CHANNELS 3 Zrotation Xrotation Yrotation
                    JOINT RightForeArm
                    {
                        OFFSET -22.903299 0.000000 0.000000
                        CHANNELS 3 Zrotation Xrotation Yrotation
                        JOINT RightHand
                        {
                            OFFSET -21.865299 0.000000 0.000000
                            CHANNELS 3 Zrotation Xrotation Yrotation
                            JOINT RightHandThumb1
                            {
                                OFFSET -1.853710 -2.106480 2.949080
                                CHANNELS 3 Zrotation Xrotation Yrotation
                                JOINT RightHandThumb2
                                {
                                    OFFSET -2.049150 0.000000 1.336400
                                    CHANNELS 3 Zrotation Xrotation Yrotation
                                    JOINT RightHandThumb3
                                    {
                                        OFFSET -2.672810 0.000000 0.000000
                                        CHANNELS 3 Zrotation Xrotation Yrotation
                                        End Site
                                        {
                                            OFFSET -2.381310 0.000000 0.000000
                                        }
                                    }
                                }
                            }
                            JOINT RightHandIndex1
                            {
                                OFFSET -7.583340 0.000000 2.949080
                                CHANNELS 3 Zrotation Xrotation Yrotation
                                JOINT RightHandIndex2
                                {
                                    OFFSET -4.454680 0.000000 0.000000
                                    CHANNELS 3 Zrotation Xrotation Yrotation
                                    JOINT RightHandIndex3
                                    {
                                        OFFSET -2.227340 0.000000 0.000000
                                        CHANNELS 3 Zrotation Xrotation Yrotation
                                        End Site
                                        {
                                            OFFSET -1.984424 0.000000 0.000000
                                        }
                                    }
                                }
                            }
                            JOINT RightHandMiddle1
                            {
                                OFFSET -7.583340 0.000000 0.977409
                                CHANNELS 3 Zrotation Xrotation Yrotation
                                JOINT RightHandMiddle2
                                {
                                    OFFSET -4.900150 0.000000 0.000000
                                    CHANNELS 3 Zrotation Xrotation Yrotation
                                    JOINT RightHandMiddle3
                                    {
                                        OFFSET -2.672810 0.000000 0.000000
                                        CHANNELS 3 Zrotation Xrotation Yrotation
                                        End Site
                                        {
                                            OFFSET -2.381310 0.000000 0.000000
                                        }
                                    }
                                }
                            }
                            JOINT RightHandRing1
                            {
                                OFFSET -7.162050 0.000000 -0.977409
                                CHANNELS 3 Zrotation Xrotation Yrotation
                                JOINT RightHandRing2
                                {
                                    OFFSET -4.454680 0.000000 0.000000
                                    CHANNELS 3 Zrotation Xrotation Yrotation
                                    JOINT RightHandRing3
                                    {
                                        OFFSET -2.227340 0.000000 0.000000
                                        CHANNELS 3 Zrotation Xrotation Yrotation
                                        End Site
                                        {
                                            OFFSET -1.984424 0.000000 0.000000
                                        }
                                    }
                                }
                            }
                            JOINT RightHandPinky1
                            {
                                OFFSET -6.740750 0.000000 -2.949080
                                CHANNELS 3 Zrotation Xrotation Yrotation
                                JOINT RightHandPinky2
                                {
                                    OFFSET -3.563750 0.000000 0.000000
                                    CHANNELS 3 Zrotation Xrotation Yrotation
                                    JOINT RightHandPinky3
                                    {
                                        OFFSET -1.781870 0.000000 0.000000
                                        CHANNELS 3 Zrotation Xrotation Yrotation
                                        End Site
                                        {
                                            OFFSET -1.587538 0.000000 0.000000
                                        }
                                    }
                                }
                            }
                        }
                    }
                }
            }
        }
    }
    JOINT LeftUpLeg
    {
        OFFSET 8.909360 0.000000 0.000000
        CHANNELS 3 Zrotation Xrotation Yrotation
        JOINT LeftLeg
        {
            OFFSET -0.000000 -38.765602 0.000000
            CHANNELS 3 Zrotation Xrotation Yrotation
            JOINT LeftFoot
            {
                OFFSET -0.000000 -35.245003 0.000000
                CHANNELS 3 Zrotation Xrotation Yrotation
                JOINT LeftToeBase
                {
                    OFFSET -0.000000 -5.791090 13.364000
                    CHANNELS 3 Zrotation Xrotation Yrotation
                    End Site
                    {
                        OFFSET -0.000000 0.000000 3.563756
                    }
                }
            }
        }
    }
    JOINT RightUpLeg
    {
        OFFSET -8.909360 0.000000 0.000000
        CHANNELS 3 Zrotation Xrotation Yrotation
        JOINT RightLeg
        {
            OFFSET -0.000000 -38.765602 0.000000
            CHANNELS 3 Zrotation Xrotation Yrotation
            JOINT RightFoot
            {
                OFFSET -0.000000 -35.245003 0.000000
                CHANNELS 3 Zrotation Xrotation Yrotation
                JOINT RightToeBase
                {
                    OFFSET -0.000000 -5.791090 13.364000
                    CHANNELS 3 Zrotation Xrotation Yrotation
                    End Site
                    {
                        OFFSET -0.000000 0.000000 3.563756
                    }
                }
            }
        }
    }
}
MOTION
Frames:    4
Frame Time:    0.033333
5.437433    81.698860    104.527092    0.846427    3.234540    3.765268    -1.186833    -0.914390    -0.633089    -0.454657    1.951444    -0.200105    -0.281966    1.355780    2.443429    5.405634    -5.340790    2.036515    16.528111    -0.102623    -3.028491    -20.672701    -0.281909    7.518595    5.068137    -1.115179    -2.163449    8.065286    -27.903254    12.347904    -0.508567    1.201909    0.814641    -0.000000    0.000000    0.914970    -0.000000    0.000000    1.829941    4.744467    -0.528681    -6.343786    0.000000    0.000000    0.000000    0.000000    0.000000    0.000000    -4.441489    -0.740976    -1.325168    -15.270559    0.000000    0.000000    -7.635280    0.000000    0.000000    -13.576038    -1.749947    3.596469    -30.541115    0.000000    0.000000    -15.270556    0.000000    0.000000    -22.872391    -3.588308    8.439030    -46.274414    0.000000    0.000000    -23.137209    0.000000    0.000000    -16.015705    7.629008    -10.640486    26.944727    -1.240506    1.088467    -5.277132    -11.920568    -1.929196    6.286961    -33.549911    -10.768378    0.245207    -4.371267    6.903769    0.000000    0.000000    0.000000    0.000000    0.000000    0.000000    3.856189    0.340322    5.035873    7.742310    0.000000    -0.000000    3.871155    0.000000    -0.000000    5.980769    -0.039131    1.061771    11.961655    0.000000    -0.000000    5.980828    0.000000    -0.000000    8.074039    -0.564628    -2.895716    16.181002    0.000000    -0.000000    8.090501    0.000000    -0.000000    10.187855    -1.255417    -6.950946    20.528204    0.000000    -0.000000    10.264102    0.000000    -0.000000    -2.813452    -0.345969    -3.868916    0.993531    -5.356942    20.707474    0.906352    3.191392    -24.874828    0.380398    -3.143250    -1.407174    -1.229987    -0.015331    8.603619    0.015831    -3.904709    -14.317296    0.740350    -0.734419    3.998531    -0.208813    -1.112707    0.217517    
5.449624    81.747452    104.547096    0.736487    3.527374    3.221796    -1.095408    -1.435267    -0.471663    -0.258987    2.227108    -0.147722    -0.328831    0.831394    2.695907    5.369822    -4.075041    2.236052    16.256149    -0.085445    -3.275670    -24.683044    -0.359627    7.921386    7.248978    -3.020157    -1.847855    11.004963    -29.663260    13.752714    0.299749    0.584542    1.063293    -0.000000    0.000000    1.033650    -0.000000    0.000000    2.067300    3.930694    -0.395584    -5.737882    0.000000    0.000000    0.000000    0.000000    0.000000    0.000000    -4.730230    -0.571337    -1.392388    -14.742787    0.000000    0.000000    -7.371394    0.000000    0.000000    -13.354407    -1.398366    2.877811    -29.485577    0.000000    0.000000    -14.742786    0.000000    0.000000    -22.157166    -2.907242    7.099607    -44.675114    0.000000    0.000000    -22.337557    0.000000    0.000000    -16.113747    7.520781    -10.099272    30.708174    2.415609    1.314975    -8.390560    -12.024101    -1.889298    5.777643    -35.593040    -9.110377    0.094061    -4.301361    6.684396    0.000000    0.000000    0.000000    0.000000    0.000000    0.000000    4.188776    0.356444    4.855206    8.407775    0.000000    -0.000000    4.203887    0.000000    -0.000000    6.454645    -0.040383    1.015567    12.909451    0.000000    -0.000000    6.454724    0.000000    -0.000000    8.688967    -0.587708    -2.805573    17.411121    0.000000    -0.000000    8.705562    0.000000    -0.000000    10.947976    -1.305585    -6.717829    22.049210    0.000000    -0.000000    11.024605    0.000000    -0.000000    -2.729772    -0.444284    -4.552318    1.131835    -5.579382    20.890875    0.890218    3.197114    -23.839235    0.373415    -3.215378    -1.400235    -1.082331    -0.459996    8.574709    -0.040196    -3.710263    -14.025371    0.852046    -0.791137    4.247042    -0.225309    -1.121054    0.242854    
5.437724    81.806297    104.519943    0.722010    3.578415    2.830365    -1.089745    -1.444006    -0.537451    -0.199782    2.433150    -0.169912    -0.160303    -0.029814    2.964391    5.187438    -3.171656    2.515037    15.265814    0.415607    -3.657568    -29.731625    -0.673836    8.662693    9.195283    -4.233818    -1.542188    13.253985    -31.543850    14.483502    1.268836    -0.476073    0.989672    -0.000000    0.000000    0.822266    -0.000000    0.000000    1.644532    2.503678    -0.212058    -4.838230    0.000000    0.000000    0.000000    0.000000    0.000000    0.000000    -5.728775    -0.449403    -1.104805    -14.818490    0.000000    0.000000    -7.409246    0.000000    0.000000    -13.929492    -1.218046    2.556689    -29.636980    0.000000    0.000000    -14.818490    0.000000    0.000000    -22.314871    -2.545874    6.176814    -44.904510    0.000000    0.000000    -22.452257    0.000000    0.000000    -15.845774    7.189859    -9.266224    36.307117    5.856492    0.971563    -11.045616    -11.119179    -1.451165    4.900225    -37.617928    -6.289121    -0.166785    -4.132133    6.235040    0.000000    0.000000    0.000000    0.000000    0.000000    0.000000    4.489956    0.338513    4.302750    9.005347    0.000000    -0.000000    4.502674    0.000000    -0.000000    6.884638    -0.067618    0.714481    13.769882    0.000000    -0.000000    6.884940    0.000000    -0.000000    9.249340    -0.622435    -2.853883    18.534416    0.000000    -0.000000    9.267207    0.000000    -0.000000    11.645165    -1.346318    -6.503919    23.443327    0.000000    -0.000000    11.721663    0.000000    -0.000000    -2.704742    -0.536090    -4.520837    1.149212    -5.490398    21.073242    0.876465    3.128225    -23.664421    0.371287    -3.237495    -1.398138    -0.972129    -0.766106    8.619286    -0.134076    -3.311939    -13.854205    0.970520    -0.915295    4.405783    -0.235483    -1.127163    0.258385    
5.403867    81.830231    104.462776    0.731677    3.403580    2.713397    -1.039440    -0.974283    -0.812643    -0.447066    2.585636    -0.258230    0.341762    -0.991716    3.121014    4.948293    -3.300898    2.770788    13.247878    1.711567    -4.118330    -35.901230    -0.560078    9.198570    9.936220    -5.529277    -1.604064    11.549512    -32.027843    13.581307    1.764378    -1.509157    0.401096    -0.000000    0.000000    0.320112    -0.000000    0.000000    0.640224    -1.882096    0.135872    -4.127630    -3.773986    0.000000    0.000000    -1.886993    0.000000    0.000000    -9.728601    -0.451747    -0.467673    -19.461994    0.000000    0.000000    -9.730999    0.000000    0.000000    -17.523781    -1.532079    3.078789    -35.150005    0.000000    0.000000    -17.575006    0.000000    0.000000    -25.477314    -3.135240    6.547931    -51.313416    0.000000    0.000000    -25.656708    0.000000    0.000000    -14.820560    6.372010    -8.138304    43.964348    10.477829    -0.442214    -12.625982    -12.595167    -0.171230    6.214988    -37.355934    -3.678061    -0.460905    -4.296908    6.262273    0.000000    0.000000    0.000000    0.000000    0.000000    0.000000    5.148034    0.347274    3.848810    10.319403    0.000000    -0.000000    5.159701    0.000000    -0.000000    7.754393    -0.101954    0.429532    15.510178    0.000000    -0.000000    7.755090    0.000000    -0.000000    10.329503    -0.705324    -2.966021    20.700949    0.000000    -0.000000    10.350477    0.000000    -0.000000    12.941067    -1.484682    -6.433282    26.049021    0.000000    -0.000000    13.024512    0.000000    -0.000000    -2.653009    -0.642843    -3.920284    1.001526    -5.020995    20.656368    0.838442    2.916271    -23.727360    0.371728    -3.241111    -1.399876    -0.856005    -0.863751    8.602913    -0.240341    -2.845570    -13.767458    1.052764    -1.074711    4.449799    -0.238364    -1.134531    0.262214    
